<svg xmlns="http://www.w3.org/2000/svg" width="181" height="206" viewBox="0 0 181 206">
  <g id="Group_103" data-name="Group 103" transform="translate(-225 -310)">
    <g id="Group_102" data-name="Group 102">
      <rect id="Rectangle_10" data-name="Rectangle 10" width="175" height="200" rx="32" transform="translate(228 313)" fill="#fff"/>
      <path id="Path_11" data-name="Path 11" d="M277.22,318.15a5.327,5.327,0,0,1-2.37-.48,3.477,3.477,0,0,1-1.47-1.4,4.919,4.919,0,0,1-.57-2.19q-.015-.615-.015-1.32t.015-1.35a4.89,4.89,0,0,1,.57-2.175,3.453,3.453,0,0,1,1.485-1.395,5.153,5.153,0,0,1,2.355-.495,5.771,5.771,0,0,1,1.83.27,4.156,4.156,0,0,1,1.38.75,3.319,3.319,0,0,1,.885,1.1,3.157,3.157,0,0,1,.33,1.365.245.245,0,0,1-.09.225.305.305,0,0,1-.225.09H279.9a.454.454,0,0,1-.27-.075.516.516,0,0,1-.15-.285,2.063,2.063,0,0,0-.825-1.35,2.73,2.73,0,0,0-1.455-.36,2.234,2.234,0,0,0-1.6.57,2.549,2.549,0,0,0-.645,1.845q-.045,1.23,0,2.52a2.606,2.606,0,0,0,.645,1.86,2.27,2.27,0,0,0,1.6.555,2.73,2.73,0,0,0,1.455-.36,2.116,2.116,0,0,0,.825-1.35.38.38,0,0,1,.42-.36h1.425a.305.305,0,0,1,.225.09.245.245,0,0,1,.09.225,3.157,3.157,0,0,1-.33,1.365,3.476,3.476,0,0,1-.885,1.11,4.319,4.319,0,0,1-1.38.735A5.771,5.771,0,0,1,277.22,318.15Zm9.474,0a4.429,4.429,0,0,1-2.025-.42,2.968,2.968,0,0,1-1.245-1.185,4.173,4.173,0,0,1-.48-1.785q-.015-.27-.015-.66t.015-.66a3.967,3.967,0,0,1,.495-1.785,3.066,3.066,0,0,1,1.26-1.185,4.355,4.355,0,0,1,1.995-.42,4.262,4.262,0,0,1,1.98.42,2.949,2.949,0,0,1,1.26,1.185,3.851,3.851,0,0,1,.51,1.785q.015.27.015.66t-.015.66a4.042,4.042,0,0,1-.495,1.785,2.857,2.857,0,0,1-1.245,1.185A4.335,4.335,0,0,1,286.694,318.15Zm0-1.485a1.551,1.551,0,0,0,1.23-.495,2.409,2.409,0,0,0,.48-1.485q.015-.225.015-.585t-.015-.585a2.385,2.385,0,0,0-.48-1.47,1.738,1.738,0,0,0-2.46,0,2.385,2.385,0,0,0-.48,1.47q-.015.225-.015.585t.015.585a2.409,2.409,0,0,0,.48,1.485A1.551,1.551,0,0,0,286.694,316.665ZM292.481,318a.359.359,0,0,1-.36-.36v-7.08a.358.358,0,0,1,.36-.36h1.17a.358.358,0,0,1,.36.36v.51a2.55,2.55,0,0,1,.84-.705,2.7,2.7,0,0,1,1.275-.315,2.381,2.381,0,0,1,2.385,1.335,2.542,2.542,0,0,1,.99-.96,2.894,2.894,0,0,1,1.455-.375,2.791,2.791,0,0,1,1.41.36,2.439,2.439,0,0,1,1.005,1.1,3.945,3.945,0,0,1,.375,1.83v4.305a.359.359,0,0,1-.36.36h-1.23a.359.359,0,0,1-.36-.36v-4.185a2.411,2.411,0,0,0-.195-1.065,1.176,1.176,0,0,0-.525-.57,1.62,1.62,0,0,0-.735-.165,1.464,1.464,0,0,0-.66.165,1.25,1.25,0,0,0-.54.57,2.262,2.262,0,0,0-.21,1.065v4.185a.359.359,0,0,1-.36.36h-1.23a.365.365,0,0,1-.27-.105.378.378,0,0,1-.09-.255v-4.185a2.262,2.262,0,0,0-.21-1.065,1.25,1.25,0,0,0-.54-.57,1.555,1.555,0,0,0-.7-.165,1.394,1.394,0,0,0-.675.18,1.262,1.262,0,0,0-.54.555,2.262,2.262,0,0,0-.21,1.065v4.185a.359.359,0,0,1-.36.36Zm13.55,2.85a.359.359,0,0,1-.36-.36v-9.93a.358.358,0,0,1,.36-.36h1.185a.318.318,0,0,1,.255.1.347.347,0,0,1,.1.255v.6a2.845,2.845,0,0,1,.945-.8,3.041,3.041,0,0,1,1.455-.315,3.434,3.434,0,0,1,1.38.255,2.546,2.546,0,0,1,.975.735,3.291,3.291,0,0,1,.6,1.11,5.24,5.24,0,0,1,.24,1.425q.015.255.015.525t-.015.54a4.794,4.794,0,0,1-.225,1.395,3.339,3.339,0,0,1-.615,1.11,2.763,2.763,0,0,1-.975.735,3.267,3.267,0,0,1-1.38.27,3.059,3.059,0,0,1-1.38-.285,2.733,2.733,0,0,1-.93-.78v3.4a.347.347,0,0,1-.1.255.318.318,0,0,1-.255.105Zm3.39-4.3a1.645,1.645,0,0,0,1.005-.27,1.534,1.534,0,0,0,.51-.735,3.414,3.414,0,0,0,.2-.99,6.761,6.761,0,0,0,0-.9,3.414,3.414,0,0,0-.2-.99,1.448,1.448,0,0,0-.51-.72,1.581,1.581,0,0,0-1.005-.285,1.661,1.661,0,0,0-1.005.285,1.7,1.7,0,0,0-.555.735,3.085,3.085,0,0,0-.2.9q-.015.27-.015.57t.015.585a2.223,2.223,0,0,0,.21.87,1.765,1.765,0,0,0,.57.675A1.63,1.63,0,0,0,309.421,316.545Zm8.344,1.6a3.032,3.032,0,0,1-1.59-.4,2.774,2.774,0,0,1-1.02-1.17,4.19,4.19,0,0,1-.36-1.8V310.56a.358.358,0,0,1,.36-.36h1.32a.318.318,0,0,1,.255.1.347.347,0,0,1,.1.255v4.125q0,1.86,1.635,1.86a1.579,1.579,0,0,0,1.23-.5,1.914,1.914,0,0,0,.465-1.365V310.56a.358.358,0,0,1,.36-.36h1.32a.358.358,0,0,1,.36.36v7.08a.358.358,0,0,1-.36.36H320.63a.365.365,0,0,1-.27-.105.378.378,0,0,1-.09-.255v-.615a2.877,2.877,0,0,1-1,.825A3.34,3.34,0,0,1,317.765,318.15Zm9.946-.15a3.3,3.3,0,0,1-1.515-.315,2.011,2.011,0,0,1-.915-.93,3.616,3.616,0,0,1-.3-1.56v-3.4H323.8a.358.358,0,0,1-.36-.36v-.87a.358.358,0,0,1,.36-.36h1.185v-2.49a.378.378,0,0,1,.09-.255.365.365,0,0,1,.27-.1h1.215a.358.358,0,0,1,.36.36v2.49h1.875a.358.358,0,0,1,.36.36v.87a.359.359,0,0,1-.36.36h-1.875v3.255a1.848,1.848,0,0,0,.21.96.843.843,0,0,0,.765.345h1.035a.358.358,0,0,1,.36.36v.93a.359.359,0,0,1-.36.36Zm6.266.15a3.6,3.6,0,0,1-2.64-.96,3.905,3.905,0,0,1-1.05-2.73q-.015-.15-.015-.375a3.609,3.609,0,0,1,.015-.375,4.529,4.529,0,0,1,.51-1.95,3.155,3.155,0,0,1,1.275-1.26,3.861,3.861,0,0,1,1.9-.45,3.812,3.812,0,0,1,2.04.51,3.128,3.128,0,0,1,1.245,1.395,4.743,4.743,0,0,1,.42,2.055v.315a.347.347,0,0,1-.105.255.365.365,0,0,1-.27.105h-4.98v.12a2.822,2.822,0,0,0,.2.975,1.766,1.766,0,0,0,.555.7,1.474,1.474,0,0,0,.885.27,1.821,1.821,0,0,0,.7-.12,1.866,1.866,0,0,0,.465-.3,1.916,1.916,0,0,0,.255-.27.659.659,0,0,1,.21-.21.583.583,0,0,1,.255-.045h1.29a.324.324,0,0,1,.24.09.245.245,0,0,1,.09.225,1.234,1.234,0,0,1-.255.585,2.781,2.781,0,0,1-.66.675,3.866,3.866,0,0,1-1.1.555A4.8,4.8,0,0,1,333.977,318.15Zm-1.65-4.725h3.315v-.045a2.475,2.475,0,0,0-.2-1.02,1.612,1.612,0,0,0-.57-.69,1.716,1.716,0,0,0-1.8,0,1.612,1.612,0,0,0-.57.69,2.656,2.656,0,0,0-.18,1.02ZM339.634,318a.359.359,0,0,1-.36-.36v-7.065a.365.365,0,0,1,.105-.27.347.347,0,0,1,.255-.1h1.215a.347.347,0,0,1,.255.1.342.342,0,0,1,.12.27v.615a2.26,2.26,0,0,1,.885-.735,3.023,3.023,0,0,1,1.275-.255H344a.318.318,0,0,1,.255.1.347.347,0,0,1,.105.255v1.08a.347.347,0,0,1-.105.255A.318.318,0,0,1,344,312h-1.17a1.382,1.382,0,0,0-1.515,1.515v4.125a.347.347,0,0,1-.1.255.365.365,0,0,1-.27.105Zm8.85.15a5.019,5.019,0,0,1-1.545-.21,3.457,3.457,0,0,1-1.035-.525,2.492,2.492,0,0,1-.6-.63,1.238,1.238,0,0,1-.21-.525.281.281,0,0,1,.09-.255.382.382,0,0,1,.255-.105h1.185a.332.332,0,0,1,.105.015.363.363,0,0,1,.12.09l.4.345a2.436,2.436,0,0,0,.525.315,2.032,2.032,0,0,0,.75.12,1.927,1.927,0,0,0,.975-.225.748.748,0,0,0,.4-.675.722.722,0,0,0-.18-.51,1.39,1.39,0,0,0-.63-.345,10.862,10.862,0,0,0-1.32-.345,5.629,5.629,0,0,1-1.395-.495,2.087,2.087,0,0,1-.825-.75,2.057,2.057,0,0,1,.075-2.16,2.646,2.646,0,0,1,1.05-.885,3.939,3.939,0,0,1,1.74-.345,4.271,4.271,0,0,1,1.41.21,3.272,3.272,0,0,1,.99.495,2.552,2.552,0,0,1,.615.615,1.091,1.091,0,0,1,.225.525.321.321,0,0,1-.09.27.358.358,0,0,1-.24.09h-1.11a.3.3,0,0,1-.135-.03.791.791,0,0,1-.12-.075q-.165-.15-.36-.315a1.848,1.848,0,0,0-.48-.285,1.621,1.621,0,0,0-.72-.135,1.309,1.309,0,0,0-.87.255.753.753,0,0,0-.3.615.771.771,0,0,0,.135.45,1.438,1.438,0,0,0,.585.345,9.141,9.141,0,0,0,1.32.345,4.607,4.607,0,0,1,1.59.54,2.056,2.056,0,0,1,.84.81,2,2,0,0,1,.255,1.005,1.974,1.974,0,0,1-.4,1.215,2.591,2.591,0,0,1-1.17.855A5.251,5.251,0,0,1,348.484,318.15Zm8.433,0a4.766,4.766,0,0,1-1.92-.36,2.959,2.959,0,0,1-1.275-1.05,2.872,2.872,0,0,1-.45-1.6,2.463,2.463,0,0,1,.27-1.17,3.117,3.117,0,0,1,.735-.93,7.05,7.05,0,0,1,1.065-.765,5.1,5.1,0,0,1-.915-1.23,2.548,2.548,0,0,1-.27-1.125,2.312,2.312,0,0,1,.36-1.26,2.64,2.64,0,0,1,1.035-.945,3.469,3.469,0,0,1,1.65-.36,3.268,3.268,0,0,1,1.56.345,2.557,2.557,0,0,1,1.02.93,2.312,2.312,0,0,1,.36,1.26,2.128,2.128,0,0,1-.3,1.125,3.179,3.179,0,0,1-.78.87,8.544,8.544,0,0,1-1.11.735l2.16,2.145q.18-.3.4-.78a6.447,6.447,0,0,0,.39-1.215.284.284,0,0,1,.315-.255h1.1a.308.308,0,0,1,.3.3,2.7,2.7,0,0,1-.135.69,5.283,5.283,0,0,1-.3.8,7.114,7.114,0,0,1-.42.825,8.474,8.474,0,0,1-.51.765l1.59,1.62a.3.3,0,0,1,.12.225.264.264,0,0,1-.075.195.284.284,0,0,1-.21.075h-1.44a.54.54,0,0,1-.24-.045.925.925,0,0,1-.165-.1l-.825-.81a4.61,4.61,0,0,1-1.365.825A4.836,4.836,0,0,1,356.917,318.15Zm0-1.545a2.76,2.76,0,0,0,1.02-.2,2.906,2.906,0,0,0,.915-.585l-2.4-2.37a3.945,3.945,0,0,0-.915.675,1.313,1.313,0,0,0-.375.945,1.408,1.408,0,0,0,.24.825,1.81,1.81,0,0,0,.66.525A2.081,2.081,0,0,0,356.917,316.605Zm-.015-5.1q.4-.225.75-.45a2.005,2.005,0,0,0,.54-.495,1.038,1.038,0,0,0,.21-.63,1.019,1.019,0,0,0-.345-.81,1.278,1.278,0,0,0-.87-.3,1.331,1.331,0,0,0-.855.3.973.973,0,0,0-.36.81,1.416,1.416,0,0,0,.075.45,2.373,2.373,0,0,0,.285.495Q356.542,311.13,356.9,311.505ZM273.53,336a.358.358,0,0,1-.36-.36v-9.78a.358.358,0,0,1,.36-.36h1.395a.359.359,0,0,1,.36.36v8.355h4.755a.36.36,0,0,1,.375.375v1.05a.347.347,0,0,1-.105.255.365.365,0,0,1-.27.105Zm10.426.15a3.239,3.239,0,0,1-1.41-.3,2.742,2.742,0,0,1-1.005-.825,2.022,2.022,0,0,1-.36-1.17,1.957,1.957,0,0,1,.84-1.665,5,5,0,0,1,2.25-.84l2.055-.3v-.315a1.394,1.394,0,0,0-.315-.975,1.413,1.413,0,0,0-1.08-.345,1.592,1.592,0,0,0-.885.225,1.306,1.306,0,0,0-.495.57.382.382,0,0,1-.345.2h-1.185a.345.345,0,0,1-.255-.09.363.363,0,0,1-.075-.24,1.534,1.534,0,0,1,.195-.585,2.144,2.144,0,0,1,.57-.66,3.3,3.3,0,0,1,1.005-.555,4.337,4.337,0,0,1,1.485-.225,4.589,4.589,0,0,1,1.59.24,2.68,2.68,0,0,1,1.05.615,2.359,2.359,0,0,1,.57.915,3.4,3.4,0,0,1,.18,1.11v4.71a.359.359,0,0,1-.36.36h-1.215a.365.365,0,0,1-.27-.105.378.378,0,0,1-.09-.255v-.585a2.419,2.419,0,0,1-.525.54,3.064,3.064,0,0,1-.81.4A3.635,3.635,0,0,1,283.956,336.15Zm.51-1.425a1.969,1.969,0,0,0,.945-.225,1.554,1.554,0,0,0,.675-.69,2.538,2.538,0,0,0,.255-1.2V332.3l-1.5.24a3.225,3.225,0,0,0-1.32.435.872.872,0,0,0-.24,1.3,1.374,1.374,0,0,0,.525.345A2.073,2.073,0,0,0,284.466,334.725Zm6.17,4.125a.359.359,0,0,1-.36-.36v-9.93a.358.358,0,0,1,.36-.36h1.185a.317.317,0,0,1,.255.1.347.347,0,0,1,.105.255v.6a2.845,2.845,0,0,1,.945-.8,3.041,3.041,0,0,1,1.455-.315,3.434,3.434,0,0,1,1.38.255,2.546,2.546,0,0,1,.975.735,3.291,3.291,0,0,1,.6,1.11,5.241,5.241,0,0,1,.24,1.425q.015.255.015.525t-.015.54a4.794,4.794,0,0,1-.225,1.395,3.339,3.339,0,0,1-.615,1.11,2.763,2.763,0,0,1-.975.735,3.267,3.267,0,0,1-1.38.27,3.059,3.059,0,0,1-1.38-.285,2.733,2.733,0,0,1-.93-.78v3.4a.347.347,0,0,1-.105.255.318.318,0,0,1-.255.105Zm3.39-4.3a1.645,1.645,0,0,0,1.005-.27,1.534,1.534,0,0,0,.51-.735,3.412,3.412,0,0,0,.2-.99,6.751,6.751,0,0,0,0-.9,3.412,3.412,0,0,0-.2-.99,1.447,1.447,0,0,0-.51-.72,1.581,1.581,0,0,0-1.005-.285,1.661,1.661,0,0,0-1.005.285,1.7,1.7,0,0,0-.555.735,3.083,3.083,0,0,0-.2.9q-.015.27-.015.57t.015.585a2.224,2.224,0,0,0,.21.87,1.765,1.765,0,0,0,.57.675A1.63,1.63,0,0,0,294.026,334.545ZM302.941,336a3.3,3.3,0,0,1-1.515-.315,2.011,2.011,0,0,1-.915-.93,3.617,3.617,0,0,1-.3-1.56v-3.4h-1.185a.359.359,0,0,1-.36-.36v-.87a.358.358,0,0,1,.36-.36h1.185v-2.49a.379.379,0,0,1,.09-.255.366.366,0,0,1,.27-.1h1.215a.358.358,0,0,1,.36.36v2.49h1.875a.358.358,0,0,1,.36.36v.87a.359.359,0,0,1-.36.36h-1.875v3.255a1.848,1.848,0,0,0,.21.96.843.843,0,0,0,.765.345h1.035a.358.358,0,0,1,.36.36v.93a.358.358,0,0,1-.36.36Zm6.355.15a4.429,4.429,0,0,1-2.025-.42,2.969,2.969,0,0,1-1.245-1.185,4.173,4.173,0,0,1-.48-1.785q-.015-.27-.015-.66t.015-.66a3.968,3.968,0,0,1,.495-1.785,3.066,3.066,0,0,1,1.26-1.185,4.355,4.355,0,0,1,1.995-.42,4.262,4.262,0,0,1,1.98.42,2.949,2.949,0,0,1,1.26,1.185,3.851,3.851,0,0,1,.51,1.785q.015.27.015.66t-.015.66a4.042,4.042,0,0,1-.495,1.785,2.857,2.857,0,0,1-1.245,1.185A4.334,4.334,0,0,1,309.3,336.15Zm0-1.485a1.551,1.551,0,0,0,1.23-.495,2.409,2.409,0,0,0,.48-1.485q.015-.225.015-.585t-.015-.585a2.384,2.384,0,0,0-.48-1.47,1.738,1.738,0,0,0-2.46,0,2.384,2.384,0,0,0-.48,1.47q-.015.225-.015.585t.015.585a2.409,2.409,0,0,0,.48,1.485A1.551,1.551,0,0,0,309.3,334.665Zm5.8,4.185a.358.358,0,0,1-.36-.36v-9.93a.358.358,0,0,1,.36-.36h1.185a.318.318,0,0,1,.255.1.347.347,0,0,1,.105.255v.6a2.845,2.845,0,0,1,.945-.8,3.041,3.041,0,0,1,1.455-.315,3.434,3.434,0,0,1,1.38.255,2.547,2.547,0,0,1,.975.735,3.291,3.291,0,0,1,.6,1.11,5.241,5.241,0,0,1,.24,1.425q.015.255.015.525t-.015.54a4.794,4.794,0,0,1-.225,1.395,3.34,3.34,0,0,1-.615,1.11,2.763,2.763,0,0,1-.975.735,3.267,3.267,0,0,1-1.38.27,3.059,3.059,0,0,1-1.38-.285,2.732,2.732,0,0,1-.93-.78v3.4a.347.347,0,0,1-.105.255.318.318,0,0,1-.255.105Zm3.39-4.3a1.645,1.645,0,0,0,1.005-.27,1.534,1.534,0,0,0,.51-.735,3.412,3.412,0,0,0,.2-.99,6.761,6.761,0,0,0,0-.9,3.412,3.412,0,0,0-.2-.99,1.447,1.447,0,0,0-.51-.72,1.581,1.581,0,0,0-1.005-.285,1.661,1.661,0,0,0-1.005.285,1.7,1.7,0,0,0-.555.735,3.083,3.083,0,0,0-.2.9q-.015.27-.015.57t.015.585a2.223,2.223,0,0,0,.21.87,1.765,1.765,0,0,0,.57.675A1.63,1.63,0,0,0,318.488,334.545Zm8.4,1.6a5.019,5.019,0,0,1-1.545-.21,3.456,3.456,0,0,1-1.035-.525,2.491,2.491,0,0,1-.6-.63,1.238,1.238,0,0,1-.21-.525.281.281,0,0,1,.09-.255.382.382,0,0,1,.255-.105h1.185a.332.332,0,0,1,.1.015.363.363,0,0,1,.12.09l.4.345a2.436,2.436,0,0,0,.525.315,2.032,2.032,0,0,0,.75.12,1.927,1.927,0,0,0,.975-.225.748.748,0,0,0,.4-.675.722.722,0,0,0-.18-.51,1.39,1.39,0,0,0-.63-.345,10.863,10.863,0,0,0-1.32-.345,5.629,5.629,0,0,1-1.4-.495,2.087,2.087,0,0,1-.825-.75,2.057,2.057,0,0,1,.075-2.16,2.646,2.646,0,0,1,1.05-.885,3.939,3.939,0,0,1,1.74-.345,4.271,4.271,0,0,1,1.41.21,3.272,3.272,0,0,1,.99.495,2.551,2.551,0,0,1,.615.615,1.091,1.091,0,0,1,.225.525.321.321,0,0,1-.09.27.358.358,0,0,1-.24.09h-1.11a.3.3,0,0,1-.135-.03.788.788,0,0,1-.12-.075q-.165-.15-.36-.315a1.848,1.848,0,0,0-.48-.285,1.621,1.621,0,0,0-.72-.135,1.309,1.309,0,0,0-.87.255.753.753,0,0,0-.3.615.771.771,0,0,0,.135.45,1.438,1.438,0,0,0,.585.345,9.142,9.142,0,0,0,1.32.345,4.608,4.608,0,0,1,1.59.54,2.056,2.056,0,0,1,.84.81,2,2,0,0,1,.255,1.005,1.974,1.974,0,0,1-.4,1.215,2.592,2.592,0,0,1-1.17.855A5.251,5.251,0,0,1,326.892,336.15Z" transform="translate(2 28)" fill="#293241"/>
      <path id="Path_49" data-name="Path 49" d="M101.14,65.625h77.049a2.129,2.129,0,0,1,2.125,2.128v54.463a2.129,2.129,0,0,1-2.125,2.128H101.14a2.131,2.131,0,0,1-2.128-2.128V67.753a2.131,2.131,0,0,1,2.128-2.128Zm-10.779,83.4h98.6a1.485,1.485,0,0,0,1.362-2.093l-8.6-19.4H97.6l-8.6,19.4a1.486,1.486,0,0,0,1.362,2.093Zm38.112-6.486a.849.849,0,0,1-.779-1.2l2.849-6.428a1.464,1.464,0,0,1,1.362-.886l15.52,0a1.462,1.462,0,0,1,1.362.886l2.849,6.428a.848.848,0,0,1-.777,1.2ZM107.947,73.071a1.491,1.491,0,0,0-1.489,1.489v40.847a1.491,1.491,0,0,0,1.489,1.489h63.433a1.493,1.493,0,0,0,1.489-1.489V74.56a1.493,1.493,0,0,0-1.489-1.489Z" transform="translate(180.215 331.052)" fill="#293241" fill-rule="evenodd"/>
      <g id="Group_61" data-name="Group 61" transform="translate(200 28)">
        <rect id="Rectangle_14" data-name="Rectangle 14" width="175" height="200" rx="32" transform="translate(28 285)" fill="none" stroke="#293241" stroke-width="6"/>
      </g>
    </g>
  </g>
</svg>
