<svg xmlns="http://www.w3.org/2000/svg" width="181" height="206" viewBox="0 0 181 206">
  <g id="Group_105" data-name="Group 105" transform="translate(-27 -533)">
    <path id="Path_10" data-name="Path 10" d="M66.25,539.15a5.289,5.289,0,0,1-2.355-.48,3.574,3.574,0,0,1-1.5-1.38,4.64,4.64,0,0,1-.57-2.175q-.015-.645-.015-1.38t.015-1.41a4.425,4.425,0,0,1,.57-2.13,3.585,3.585,0,0,1,1.515-1.365,5.311,5.311,0,0,1,2.34-.48,5.609,5.609,0,0,1,1.92.3,4.137,4.137,0,0,1,1.365.75,3.092,3.092,0,0,1,.825.975,2.222,2.222,0,0,1,.3.975.261.261,0,0,1-.075.225.324.324,0,0,1-.24.09H68.8a.355.355,0,0,1-.225-.06.529.529,0,0,1-.135-.18,2.121,2.121,0,0,0-.375-.615,1.972,1.972,0,0,0-.69-.525,2.6,2.6,0,0,0-1.125-.21,2.389,2.389,0,0,0-1.635.54,2.426,2.426,0,0,0-.645,1.785q-.045,1.3,0,2.64a2.487,2.487,0,0,0,.66,1.83,2.4,2.4,0,0,0,1.65.555,2.857,2.857,0,0,0,1.2-.24,1.8,1.8,0,0,0,.84-.75,2.449,2.449,0,0,0,.315-1.3v-.465h-1.83a.347.347,0,0,1-.255-.1.365.365,0,0,1-.105-.27v-.795a.366.366,0,0,1,.105-.27.347.347,0,0,1,.255-.1H70.39a.318.318,0,0,1,.255.1.366.366,0,0,1,.105.27v1.575a4.114,4.114,0,0,1-.555,2.175,3.569,3.569,0,0,1-1.56,1.41A5.345,5.345,0,0,1,66.25,539.15Zm8.508,0a3.238,3.238,0,0,1-1.41-.3,2.742,2.742,0,0,1-1-.825,2.023,2.023,0,0,1-.36-1.17,1.957,1.957,0,0,1,.84-1.665,5,5,0,0,1,2.25-.84l2.055-.3v-.315a1.394,1.394,0,0,0-.315-.975,1.413,1.413,0,0,0-1.08-.345,1.592,1.592,0,0,0-.885.225,1.306,1.306,0,0,0-.5.57.382.382,0,0,1-.345.2H72.823a.345.345,0,0,1-.255-.09.363.363,0,0,1-.075-.24,1.534,1.534,0,0,1,.195-.585,2.143,2.143,0,0,1,.57-.66,3.294,3.294,0,0,1,1.005-.555,4.337,4.337,0,0,1,1.485-.225,4.589,4.589,0,0,1,1.59.24,2.681,2.681,0,0,1,1.05.615,2.358,2.358,0,0,1,.57.915,3.4,3.4,0,0,1,.18,1.11v4.71a.358.358,0,0,1-.36.36H77.563a.365.365,0,0,1-.27-.1.379.379,0,0,1-.09-.255v-.585a2.418,2.418,0,0,1-.525.54,3.062,3.062,0,0,1-.81.405A3.636,3.636,0,0,1,74.758,539.15Zm.51-1.425a1.969,1.969,0,0,0,.945-.225,1.554,1.554,0,0,0,.675-.69,2.538,2.538,0,0,0,.255-1.2v-.315l-1.5.24a3.226,3.226,0,0,0-1.32.435.872.872,0,0,0-.24,1.305,1.375,1.375,0,0,0,.525.345A2.073,2.073,0,0,0,75.268,537.725ZM81.422,539a.358.358,0,0,1-.36-.36v-7.08a.358.358,0,0,1,.36-.36h1.17a.358.358,0,0,1,.36.36v.51a2.549,2.549,0,0,1,.84-.705,2.7,2.7,0,0,1,1.275-.315,2.381,2.381,0,0,1,2.385,1.335,2.541,2.541,0,0,1,.99-.96,2.894,2.894,0,0,1,1.455-.375,2.791,2.791,0,0,1,1.41.36,2.439,2.439,0,0,1,1.005,1.1,3.945,3.945,0,0,1,.375,1.83v4.3a.358.358,0,0,1-.36.36H91.1a.358.358,0,0,1-.36-.36v-4.185a2.411,2.411,0,0,0-.195-1.065,1.176,1.176,0,0,0-.525-.57,1.621,1.621,0,0,0-.735-.165,1.465,1.465,0,0,0-.66.165,1.25,1.25,0,0,0-.54.57,2.262,2.262,0,0,0-.21,1.065v4.185a.358.358,0,0,1-.36.36h-1.23a.365.365,0,0,1-.27-.1.379.379,0,0,1-.09-.255v-4.185a2.262,2.262,0,0,0-.21-1.065,1.25,1.25,0,0,0-.54-.57,1.555,1.555,0,0,0-.705-.165,1.394,1.394,0,0,0-.675.18,1.262,1.262,0,0,0-.54.555,2.262,2.262,0,0,0-.21,1.065v4.185a.358.358,0,0,1-.36.36Zm16.535.15a3.6,3.6,0,0,1-2.64-.96,3.905,3.905,0,0,1-1.05-2.73q-.015-.15-.015-.375a3.6,3.6,0,0,1,.015-.375,4.529,4.529,0,0,1,.51-1.95,3.155,3.155,0,0,1,1.275-1.26,3.861,3.861,0,0,1,1.9-.45,3.811,3.811,0,0,1,2.04.51,3.13,3.13,0,0,1,1.245,1.4,4.743,4.743,0,0,1,.42,2.055v.315a.347.347,0,0,1-.105.255.365.365,0,0,1-.27.1h-4.98v.12a2.822,2.822,0,0,0,.195.975,1.766,1.766,0,0,0,.555.7,1.474,1.474,0,0,0,.885.27,1.82,1.82,0,0,0,.705-.12,1.868,1.868,0,0,0,.465-.3,1.922,1.922,0,0,0,.255-.27.659.659,0,0,1,.21-.21.583.583,0,0,1,.255-.045h1.29a.324.324,0,0,1,.24.09.245.245,0,0,1,.09.225,1.235,1.235,0,0,1-.255.585,2.781,2.781,0,0,1-.66.675,3.865,3.865,0,0,1-1.095.555A4.8,4.8,0,0,1,97.957,539.15Zm-1.65-4.725h3.315v-.045a2.475,2.475,0,0,0-.195-1.02,1.612,1.612,0,0,0-.57-.69,1.716,1.716,0,0,0-1.8,0,1.612,1.612,0,0,0-.57.69,2.656,2.656,0,0,0-.18,1.02Zm9.9,4.725a5.018,5.018,0,0,1-1.545-.21,3.456,3.456,0,0,1-1.035-.525,2.49,2.49,0,0,1-.6-.63,1.238,1.238,0,0,1-.21-.525.281.281,0,0,1,.09-.255.382.382,0,0,1,.255-.1h1.185a.334.334,0,0,1,.105.015.365.365,0,0,1,.12.09l.405.345a2.434,2.434,0,0,0,.525.315,2.032,2.032,0,0,0,.75.12,1.927,1.927,0,0,0,.975-.225.748.748,0,0,0,.4-.675.722.722,0,0,0-.18-.51,1.39,1.39,0,0,0-.63-.345,10.85,10.85,0,0,0-1.32-.345,5.629,5.629,0,0,1-1.395-.495,2.086,2.086,0,0,1-.825-.75,2.057,2.057,0,0,1,.075-2.16,2.645,2.645,0,0,1,1.05-.885,3.938,3.938,0,0,1,1.74-.345,4.271,4.271,0,0,1,1.41.21,3.272,3.272,0,0,1,.99.495,2.552,2.552,0,0,1,.615.615,1.091,1.091,0,0,1,.225.525.321.321,0,0,1-.09.27.358.358,0,0,1-.24.09h-1.11a.3.3,0,0,1-.135-.03.787.787,0,0,1-.12-.075q-.165-.15-.36-.315a1.846,1.846,0,0,0-.48-.285,1.622,1.622,0,0,0-.72-.135,1.309,1.309,0,0,0-.87.255.753.753,0,0,0-.3.615.771.771,0,0,0,.135.45,1.439,1.439,0,0,0,.585.345,9.147,9.147,0,0,0,1.32.345,4.605,4.605,0,0,1,1.59.54,2.056,2.056,0,0,1,.84.81,2,2,0,0,1,.255,1.005,1.974,1.974,0,0,1-.4,1.215,2.591,2.591,0,0,1-1.17.855A5.25,5.25,0,0,1,106.21,539.15Zm12.686,0a5.326,5.326,0,0,1-2.37-.48,3.477,3.477,0,0,1-1.47-1.395,4.92,4.92,0,0,1-.57-2.19q-.015-.615-.015-1.32t.015-1.35a4.89,4.89,0,0,1,.57-2.175,3.453,3.453,0,0,1,1.485-1.4,5.153,5.153,0,0,1,2.355-.495,5.772,5.772,0,0,1,1.83.27,4.156,4.156,0,0,1,1.38.75,3.318,3.318,0,0,1,.885,1.1,3.157,3.157,0,0,1,.33,1.365.245.245,0,0,1-.09.225.305.305,0,0,1-.225.09h-1.425a.454.454,0,0,1-.27-.075.516.516,0,0,1-.15-.285,2.063,2.063,0,0,0-.825-1.35,2.73,2.73,0,0,0-1.455-.36,2.234,2.234,0,0,0-1.6.57,2.548,2.548,0,0,0-.645,1.845q-.045,1.23,0,2.52a2.606,2.606,0,0,0,.645,1.86,2.27,2.27,0,0,0,1.6.555,2.73,2.73,0,0,0,1.455-.36,2.116,2.116,0,0,0,.825-1.35.38.38,0,0,1,.42-.36h1.425a.305.305,0,0,1,.225.09.245.245,0,0,1,.09.225,3.157,3.157,0,0,1-.33,1.365,3.476,3.476,0,0,1-.885,1.11,4.319,4.319,0,0,1-1.38.735A5.772,5.772,0,0,1,118.9,539.15Zm9.474,0a4.428,4.428,0,0,1-2.025-.42,2.968,2.968,0,0,1-1.245-1.185,4.173,4.173,0,0,1-.48-1.785q-.015-.27-.015-.66t.015-.66a3.967,3.967,0,0,1,.495-1.785,3.067,3.067,0,0,1,1.26-1.185,4.356,4.356,0,0,1,1.995-.42,4.262,4.262,0,0,1,1.98.42,2.95,2.95,0,0,1,1.26,1.185,3.85,3.85,0,0,1,.51,1.785q.015.27.015.66t-.015.66a4.042,4.042,0,0,1-.495,1.785,2.857,2.857,0,0,1-1.245,1.185A4.334,4.334,0,0,1,128.37,539.15Zm0-1.485a1.551,1.551,0,0,0,1.23-.495,2.409,2.409,0,0,0,.48-1.485q.015-.225.015-.585t-.015-.585a2.385,2.385,0,0,0-.48-1.47,1.738,1.738,0,0,0-2.46,0,2.385,2.385,0,0,0-.48,1.47q-.015.225-.015.585t.015.585a2.409,2.409,0,0,0,.48,1.485A1.551,1.551,0,0,0,128.37,537.665ZM134.157,539a.358.358,0,0,1-.36-.36v-7.08a.358.358,0,0,1,.36-.36h1.23a.358.358,0,0,1,.36.36v.615a3.13,3.13,0,0,1,.99-.795,3.172,3.172,0,0,1,1.515-.33,2.948,2.948,0,0,1,1.59.42,2.645,2.645,0,0,1,1.035,1.155,3.987,3.987,0,0,1,.375,1.8v4.215a.358.358,0,0,1-.36.36h-1.32a.358.358,0,0,1-.36-.36v-4.125a2,2,0,0,0-.435-1.365,1.523,1.523,0,0,0-1.23-.495,1.627,1.627,0,0,0-1.245.495,1.914,1.914,0,0,0-.465,1.365v4.125a.358.358,0,0,1-.36.36Zm11.955.15a5.018,5.018,0,0,1-1.545-.21,3.456,3.456,0,0,1-1.035-.525,2.489,2.489,0,0,1-.6-.63,1.238,1.238,0,0,1-.21-.525.281.281,0,0,1,.09-.255.382.382,0,0,1,.255-.1h1.185a.334.334,0,0,1,.1.015.365.365,0,0,1,.12.09l.4.345a2.434,2.434,0,0,0,.525.315,2.032,2.032,0,0,0,.75.12,1.927,1.927,0,0,0,.975-.225.748.748,0,0,0,.4-.675.722.722,0,0,0-.18-.51,1.39,1.39,0,0,0-.63-.345,10.85,10.85,0,0,0-1.32-.345,5.629,5.629,0,0,1-1.4-.495,2.087,2.087,0,0,1-.825-.75,2.057,2.057,0,0,1,.075-2.16,2.646,2.646,0,0,1,1.05-.885,3.938,3.938,0,0,1,1.74-.345,4.271,4.271,0,0,1,1.41.21,3.272,3.272,0,0,1,.99.495,2.552,2.552,0,0,1,.615.615,1.091,1.091,0,0,1,.225.525.321.321,0,0,1-.09.27.358.358,0,0,1-.24.09h-1.11a.3.3,0,0,1-.135-.03.787.787,0,0,1-.12-.075q-.165-.15-.36-.315a1.846,1.846,0,0,0-.48-.285,1.622,1.622,0,0,0-.72-.135,1.309,1.309,0,0,0-.87.255.753.753,0,0,0-.3.615.771.771,0,0,0,.135.45,1.439,1.439,0,0,0,.585.345,9.147,9.147,0,0,0,1.32.345,4.605,4.605,0,0,1,1.59.54,2.056,2.056,0,0,1,.84.81,2,2,0,0,1,.255,1.005,1.974,1.974,0,0,1-.4,1.215,2.591,2.591,0,0,1-1.17.855A5.25,5.25,0,0,1,146.112,539.15Zm8.478,0a4.428,4.428,0,0,1-2.025-.42,2.968,2.968,0,0,1-1.245-1.185,4.172,4.172,0,0,1-.48-1.785q-.015-.27-.015-.66t.015-.66a3.967,3.967,0,0,1,.5-1.785,3.066,3.066,0,0,1,1.26-1.185,4.356,4.356,0,0,1,1.995-.42,4.262,4.262,0,0,1,1.98.42,2.95,2.95,0,0,1,1.26,1.185,3.85,3.85,0,0,1,.51,1.785q.015.27.015.66t-.015.66a4.042,4.042,0,0,1-.495,1.785,2.857,2.857,0,0,1-1.245,1.185A4.334,4.334,0,0,1,154.59,539.15Zm0-1.485a1.551,1.551,0,0,0,1.23-.495,2.409,2.409,0,0,0,.48-1.485q.015-.225.015-.585t-.015-.585a2.385,2.385,0,0,0-.48-1.47,1.738,1.738,0,0,0-2.46,0,2.385,2.385,0,0,0-.48,1.47q-.015.225-.015.585t.015.585a2.409,2.409,0,0,0,.48,1.485A1.551,1.551,0,0,0,154.59,537.665Zm5.8,1.335a.358.358,0,0,1-.36-.36v-9.93a.359.359,0,0,1,.36-.36h1.245a.359.359,0,0,1,.36.36v9.93a.358.358,0,0,1-.36.36Zm6.955.15a3.6,3.6,0,0,1-2.64-.96,3.905,3.905,0,0,1-1.05-2.73q-.015-.15-.015-.375a3.6,3.6,0,0,1,.015-.375,4.529,4.529,0,0,1,.51-1.95,3.155,3.155,0,0,1,1.275-1.26,3.861,3.861,0,0,1,1.9-.45,3.811,3.811,0,0,1,2.04.51,3.128,3.128,0,0,1,1.245,1.4,4.743,4.743,0,0,1,.42,2.055v.315a.347.347,0,0,1-.1.255.365.365,0,0,1-.27.1H165.7v.12a2.822,2.822,0,0,0,.195.975,1.766,1.766,0,0,0,.555.7,1.474,1.474,0,0,0,.885.27,1.82,1.82,0,0,0,.705-.12,1.868,1.868,0,0,0,.465-.3,1.922,1.922,0,0,0,.255-.27.659.659,0,0,1,.21-.21.583.583,0,0,1,.255-.045h1.29a.324.324,0,0,1,.24.09.245.245,0,0,1,.09.225,1.235,1.235,0,0,1-.255.585,2.781,2.781,0,0,1-.66.675,3.868,3.868,0,0,1-1.1.555A4.8,4.8,0,0,1,167.347,539.15Zm-1.65-4.725h3.315v-.045a2.475,2.475,0,0,0-.195-1.02,1.612,1.612,0,0,0-.57-.69,1.716,1.716,0,0,0-1.8,0,1.612,1.612,0,0,0-.57.69,2.656,2.656,0,0,0-.18,1.02Zm9.9,4.725a5.018,5.018,0,0,1-1.545-.21,3.456,3.456,0,0,1-1.035-.525,2.489,2.489,0,0,1-.6-.63,1.238,1.238,0,0,1-.21-.525.281.281,0,0,1,.09-.255.382.382,0,0,1,.255-.1h1.185a.334.334,0,0,1,.1.015.365.365,0,0,1,.12.09l.4.345a2.434,2.434,0,0,0,.525.315,2.032,2.032,0,0,0,.75.12,1.927,1.927,0,0,0,.975-.225.748.748,0,0,0,.4-.675.722.722,0,0,0-.18-.51,1.39,1.39,0,0,0-.63-.345,10.85,10.85,0,0,0-1.32-.345,5.629,5.629,0,0,1-1.4-.495,2.087,2.087,0,0,1-.825-.75,2.057,2.057,0,0,1,.075-2.16,2.646,2.646,0,0,1,1.05-.885,3.938,3.938,0,0,1,1.74-.345,4.271,4.271,0,0,1,1.41.21,3.272,3.272,0,0,1,.99.495,2.552,2.552,0,0,1,.615.615,1.091,1.091,0,0,1,.225.525.321.321,0,0,1-.09.27.358.358,0,0,1-.24.09h-1.11a.3.3,0,0,1-.135-.03.787.787,0,0,1-.12-.075q-.165-.15-.36-.315a1.846,1.846,0,0,0-.48-.285,1.622,1.622,0,0,0-.72-.135,1.309,1.309,0,0,0-.87.255.753.753,0,0,0-.3.615.771.771,0,0,0,.135.45,1.439,1.439,0,0,0,.585.345,9.147,9.147,0,0,0,1.32.345,4.605,4.605,0,0,1,1.59.54,2.056,2.056,0,0,1,.84.81,2,2,0,0,1,.255,1.005,1.974,1.974,0,0,1-.4,1.215,2.591,2.591,0,0,1-1.17.855A5.25,5.25,0,0,1,175.6,539.15Z" transform="translate(2 28)" fill="#293241"/>
    <g id="noun-game-console-2131647" transform="translate(-56.098 506.002)">
      <path id="Path_83" data-name="Path 83" d="M216.912,105h-86.63A25.284,25.284,0,0,0,105,130.284v47.431A25.284,25.284,0,0,0,130.283,203h86.63A25.284,25.284,0,0,0,242.2,177.714V130.284A25.284,25.284,0,0,0,216.912,105ZM134.4,158.9a4.9,4.9,0,1,1-9.8,0,4.9,4.9,0,1,1,0-9.8,4.9,4.9,0,1,1,9.8,0,4.9,4.9,0,1,1,0,9.8ZM203,178.5a4.9,4.9,0,0,1-4.9,4.9h-49a4.9,4.9,0,0,1-4.9-4.9v-49a4.9,4.9,0,0,1,4.9-4.9h49a4.9,4.9,0,0,1,4.9,4.9Zm19.6-19.6a4.9,4.9,0,1,1-9.8,0,4.9,4.9,0,1,1,0-9.8,4.9,4.9,0,1,1,9.8,0,4.9,4.9,0,1,1,0,9.8Z" transform="translate(0)" fill="#293241"/>
      <path id="Path_84" data-name="Path 84" d="M280,210h39.2v39.2H280Z" transform="translate(-126.002 -75.601)" fill="#293241"/>
    </g>
    <g id="Group_62" data-name="Group 62" transform="translate(2 251)">
      <rect id="Rectangle_14" data-name="Rectangle 14" width="175" height="200" rx="32" transform="translate(28 285)" fill="none" stroke="#293241" stroke-width="6"/>
    </g>
  </g>
</svg>
