<svg xmlns="http://www.w3.org/2000/svg" width="181" height="206" viewBox="0 0 181 206">
  <g id="Group_101" data-name="Group 101" transform="translate(-27 -310)">
    <rect id="Rectangle_6" data-name="Rectangle 6" width="175" height="200" rx="32" transform="translate(30 313)" fill="#fff"/>
    <path id="Path_9" data-name="Path 9" d="M63.545,318a.365.365,0,0,1-.27-.105.347.347,0,0,1-.105-.255v-9.765a.36.36,0,0,1,.375-.375H64.73a.4.4,0,0,1,.315.12.744.744,0,0,1,.135.165l2.895,5.4,2.925-5.4a.744.744,0,0,1,.135-.165.4.4,0,0,1,.315-.12h1.17a.36.36,0,0,1,.375.375v9.765a.347.347,0,0,1-.105.255.365.365,0,0,1-.27.105H71.36a.365.365,0,0,1-.27-.105.378.378,0,0,1-.09-.255v-6.5l-2.1,4.005a.9.9,0,0,1-.195.24.512.512,0,0,1-.315.09h-.615a.539.539,0,0,1-.33-.09,1.077,1.077,0,0,1-.18-.24l-2.1-4.005v6.5a.359.359,0,0,1-.36.36Zm15.053.15a4.429,4.429,0,0,1-2.025-.42,2.969,2.969,0,0,1-1.245-1.185,4.173,4.173,0,0,1-.48-1.785q-.015-.27-.015-.66t.015-.66a3.967,3.967,0,0,1,.5-1.785,3.066,3.066,0,0,1,1.26-1.185,4.355,4.355,0,0,1,1.995-.42,4.262,4.262,0,0,1,1.98.42,2.949,2.949,0,0,1,1.26,1.185,3.851,3.851,0,0,1,.51,1.785q.015.27.015.66t-.015.66a4.042,4.042,0,0,1-.495,1.785,2.857,2.857,0,0,1-1.245,1.185A4.334,4.334,0,0,1,78.6,318.15Zm0-1.485a1.551,1.551,0,0,0,1.23-.495,2.409,2.409,0,0,0,.48-1.485q.015-.225.015-.585t-.015-.585a2.384,2.384,0,0,0-.48-1.47,1.738,1.738,0,0,0-2.46,0,2.384,2.384,0,0,0-.48,1.47q-.015.225-.015.585t.015.585a2.409,2.409,0,0,0,.48,1.485A1.551,1.551,0,0,0,78.6,316.665Zm9.747,1.485a3.168,3.168,0,0,1-1.455-.3,2.976,2.976,0,0,1-.945-.765v.555a.347.347,0,0,1-.1.255.318.318,0,0,1-.255.105H84.4a.359.359,0,0,1-.36-.36v-9.93a.358.358,0,0,1,.36-.36h1.275a.318.318,0,0,1,.255.1.347.347,0,0,1,.105.255v3.33a2.864,2.864,0,0,1,.93-.705,3.059,3.059,0,0,1,1.38-.285,3.267,3.267,0,0,1,1.38.27,2.619,2.619,0,0,1,.975.765,3.315,3.315,0,0,1,.615,1.125,4.8,4.8,0,0,1,.225,1.4q.015.27.015.495,0,.21-.015.48a5.421,5.421,0,0,1-.24,1.44,3.465,3.465,0,0,1-.6,1.125,2.687,2.687,0,0,1-.975.75A3.433,3.433,0,0,1,88.345,318.15Zm-.555-1.6a1.645,1.645,0,0,0,1-.27,1.534,1.534,0,0,0,.51-.735,3.413,3.413,0,0,0,.195-.99,6.756,6.756,0,0,0,0-.9,3.413,3.413,0,0,0-.195-.99,1.447,1.447,0,0,0-.51-.72,1.581,1.581,0,0,0-1-.285,1.63,1.63,0,0,0-.975.27,1.739,1.739,0,0,0-.57.69,2.112,2.112,0,0,0-.21.855q-.015.27-.015.585t.015.57a3.255,3.255,0,0,0,.195.915,1.71,1.71,0,0,0,.555.72A1.661,1.661,0,0,0,87.79,316.545ZM93.584,318a.359.359,0,0,1-.36-.36v-7.08a.358.358,0,0,1,.36-.36h1.245a.318.318,0,0,1,.255.1.347.347,0,0,1,.105.255v7.08a.347.347,0,0,1-.105.255.318.318,0,0,1-.255.105Zm-.06-9.09a.318.318,0,0,1-.36-.36v-1.08a.378.378,0,0,1,.09-.255.365.365,0,0,1,.27-.105h1.365a.365.365,0,0,1,.27.105.347.347,0,0,1,.1.255v1.08a.366.366,0,0,1-.1.27.4.4,0,0,1-.27.09Zm4.03,9.09a.359.359,0,0,1-.36-.36v-9.93a.358.358,0,0,1,.36-.36H98.8a.358.358,0,0,1,.36.36v9.93a.359.359,0,0,1-.36.36Zm6.955.15a3.6,3.6,0,0,1-2.64-.96,3.905,3.905,0,0,1-1.05-2.73q-.015-.15-.015-.375a3.6,3.6,0,0,1,.015-.375,4.529,4.529,0,0,1,.51-1.95,3.155,3.155,0,0,1,1.275-1.26,3.861,3.861,0,0,1,1.905-.45,3.812,3.812,0,0,1,2.04.51,3.128,3.128,0,0,1,1.245,1.395,4.743,4.743,0,0,1,.42,2.055v.315a.347.347,0,0,1-.1.255.365.365,0,0,1-.27.105h-4.98v.12a2.821,2.821,0,0,0,.195.975,1.766,1.766,0,0,0,.555.7,1.474,1.474,0,0,0,.885.27,1.821,1.821,0,0,0,.7-.12,1.866,1.866,0,0,0,.465-.3,1.918,1.918,0,0,0,.255-.27.659.659,0,0,1,.21-.21.583.583,0,0,1,.255-.045h1.29a.324.324,0,0,1,.24.09.245.245,0,0,1,.09.225,1.234,1.234,0,0,1-.255.585,2.78,2.78,0,0,1-.66.675,3.866,3.866,0,0,1-1.095.555A4.8,4.8,0,0,1,104.509,318.15Zm-1.65-4.725h3.315v-.045a2.475,2.475,0,0,0-.2-1.02,1.612,1.612,0,0,0-.57-.69,1.716,1.716,0,0,0-1.8,0,1.612,1.612,0,0,0-.57.69,2.655,2.655,0,0,0-.18,1.02ZM113.774,318a.359.359,0,0,1-.36-.36v-9.765a.365.365,0,0,1,.1-.27.347.347,0,0,1,.255-.105h4.02a5.123,5.123,0,0,1,2.04.375,2.85,2.85,0,0,1,1.35,1.11,3.815,3.815,0,0,1,0,3.705,2.912,2.912,0,0,1-1.35,1.08,5.31,5.31,0,0,1-2.04.36h-2.235v3.51a.347.347,0,0,1-.1.255.318.318,0,0,1-.255.105Zm1.755-5.535h2.19a1.973,1.973,0,0,0,1.335-.4,1.573,1.573,0,0,0,.465-1.23,1.653,1.653,0,0,0-.435-1.2,1.789,1.789,0,0,0-1.365-.465h-2.19ZM123.5,318a.359.359,0,0,1-.36-.36v-9.93a.358.358,0,0,1,.36-.36h1.335a.318.318,0,0,1,.255.1.347.347,0,0,1,.105.255v3.42a3.173,3.173,0,0,1,.99-.78,3.131,3.131,0,0,1,1.44-.3,2.948,2.948,0,0,1,1.59.42,2.709,2.709,0,0,1,1.065,1.155,3.987,3.987,0,0,1,.375,1.8v4.215a.359.359,0,0,1-.36.36h-1.35a.359.359,0,0,1-.36-.36v-4.125a2,2,0,0,0-.435-1.365,1.523,1.523,0,0,0-1.23-.495,1.676,1.676,0,0,0-1.26.495,1.915,1.915,0,0,0-.465,1.365v4.125a.347.347,0,0,1-.105.255.318.318,0,0,1-.255.105Zm12.508.15a4.429,4.429,0,0,1-2.025-.42,2.969,2.969,0,0,1-1.245-1.185,4.173,4.173,0,0,1-.48-1.785q-.015-.27-.015-.66t.015-.66a3.967,3.967,0,0,1,.495-1.785,3.066,3.066,0,0,1,1.26-1.185,4.356,4.356,0,0,1,2-.42,4.262,4.262,0,0,1,1.98.42,2.949,2.949,0,0,1,1.26,1.185,3.851,3.851,0,0,1,.51,1.785q.015.27.015.66t-.015.66a4.042,4.042,0,0,1-.5,1.785,2.857,2.857,0,0,1-1.245,1.185A4.334,4.334,0,0,1,136.005,318.15Zm0-1.485a1.551,1.551,0,0,0,1.23-.495,2.409,2.409,0,0,0,.48-1.485q.015-.225.015-.585t-.015-.585a2.384,2.384,0,0,0-.48-1.47,1.738,1.738,0,0,0-2.46,0,2.384,2.384,0,0,0-.48,1.47q-.015.225-.015.585t.015.585a2.409,2.409,0,0,0,.48,1.485A1.551,1.551,0,0,0,136.005,316.665ZM141.792,318a.359.359,0,0,1-.36-.36v-7.08a.358.358,0,0,1,.36-.36h1.23a.358.358,0,0,1,.36.36v.615a3.129,3.129,0,0,1,.99-.795,3.172,3.172,0,0,1,1.515-.33,2.948,2.948,0,0,1,1.59.42,2.645,2.645,0,0,1,1.035,1.155,3.987,3.987,0,0,1,.375,1.8v4.215a.359.359,0,0,1-.36.36h-1.32a.359.359,0,0,1-.36-.36v-4.125a2,2,0,0,0-.435-1.365,1.523,1.523,0,0,0-1.23-.495,1.627,1.627,0,0,0-1.245.495,1.915,1.915,0,0,0-.465,1.365v4.125a.359.359,0,0,1-.36.36Zm12.361.15a3.6,3.6,0,0,1-2.64-.96,3.905,3.905,0,0,1-1.05-2.73q-.015-.15-.015-.375a3.6,3.6,0,0,1,.015-.375,4.529,4.529,0,0,1,.51-1.95,3.155,3.155,0,0,1,1.275-1.26,3.861,3.861,0,0,1,1.9-.45,3.812,3.812,0,0,1,2.04.51,3.128,3.128,0,0,1,1.245,1.395,4.743,4.743,0,0,1,.42,2.055v.315a.347.347,0,0,1-.1.255.365.365,0,0,1-.27.105H152.5v.12a2.821,2.821,0,0,0,.195.975,1.766,1.766,0,0,0,.555.7,1.474,1.474,0,0,0,.885.27,1.821,1.821,0,0,0,.705-.12,1.866,1.866,0,0,0,.465-.3,1.919,1.919,0,0,0,.255-.27.659.659,0,0,1,.21-.21.582.582,0,0,1,.255-.045h1.29a.324.324,0,0,1,.24.09.245.245,0,0,1,.09.225,1.234,1.234,0,0,1-.255.585,2.78,2.78,0,0,1-.66.675,3.866,3.866,0,0,1-1.1.555A4.8,4.8,0,0,1,154.153,318.15Zm-1.65-4.725h3.315v-.045a2.475,2.475,0,0,0-.195-1.02,1.612,1.612,0,0,0-.57-.69,1.716,1.716,0,0,0-1.8,0,1.612,1.612,0,0,0-.57.69,2.656,2.656,0,0,0-.18,1.02Zm9.9,4.725a5.019,5.019,0,0,1-1.545-.21,3.456,3.456,0,0,1-1.035-.525,2.491,2.491,0,0,1-.6-.63,1.238,1.238,0,0,1-.21-.525.281.281,0,0,1,.09-.255.382.382,0,0,1,.255-.105h1.185a.332.332,0,0,1,.1.015.364.364,0,0,1,.12.09l.4.345a2.435,2.435,0,0,0,.525.315,2.032,2.032,0,0,0,.75.12,1.927,1.927,0,0,0,.975-.225.748.748,0,0,0,.4-.675.722.722,0,0,0-.18-.51,1.39,1.39,0,0,0-.63-.345,10.862,10.862,0,0,0-1.32-.345,5.629,5.629,0,0,1-1.4-.495,2.087,2.087,0,0,1-.825-.75,2.057,2.057,0,0,1,.075-2.16,2.646,2.646,0,0,1,1.05-.885,3.939,3.939,0,0,1,1.74-.345,4.271,4.271,0,0,1,1.41.21,3.272,3.272,0,0,1,.99.495,2.552,2.552,0,0,1,.615.615,1.092,1.092,0,0,1,.225.525.321.321,0,0,1-.09.27.358.358,0,0,1-.24.09h-1.11a.3.3,0,0,1-.135-.03.79.79,0,0,1-.12-.075q-.165-.15-.36-.315a1.848,1.848,0,0,0-.48-.285,1.622,1.622,0,0,0-.72-.135,1.309,1.309,0,0,0-.87.255.753.753,0,0,0-.3.615.771.771,0,0,0,.135.45,1.438,1.438,0,0,0,.585.345,9.142,9.142,0,0,0,1.32.345,4.607,4.607,0,0,1,1.59.54,2.056,2.056,0,0,1,.84.81,2,2,0,0,1,.255,1.005,1.974,1.974,0,0,1-.4,1.215,2.591,2.591,0,0,1-1.17.855A5.251,5.251,0,0,1,162.4,318.15Z" transform="translate(2.83 28)" fill="#293241"/>
    <g id="Group_4" data-name="Group 4" transform="translate(2 28)">
      <rect id="Rectangle_14" data-name="Rectangle 14" width="175" height="200" rx="32" transform="translate(28 285)" fill="none" stroke="#293241" stroke-width="6"/>
    </g>
    <path id="Path_27" data-name="Path 27" d="M251.179,13.125H198.036a8.1,8.1,0,0,0-8.161,8.161v99.643a8.1,8.1,0,0,0,8.161,8.161h53.142a8.1,8.1,0,0,0,8.161-8.161V21.1a8.061,8.061,0,0,0-8.161-7.971ZM207.905,121.308a4.555,4.555,0,1,1,4.555-4.555A4.5,4.5,0,0,1,207.905,121.308Zm0-15.373a4.555,4.555,0,1,1,4.555-4.555A4.618,4.618,0,0,1,207.905,105.934Zm0-15.563a4.555,4.555,0,1,1,4.555-4.555A4.5,4.5,0,0,1,207.905,90.371Zm16.7,30.935a4.555,4.555,0,1,1,4.555-4.555A4.5,4.5,0,0,1,224.607,121.307Zm0-15.373a4.555,4.555,0,1,1,4.555-4.555A4.618,4.618,0,0,1,224.607,105.933Zm0-15.563a4.555,4.555,0,1,1,4.555-4.555A4.5,4.5,0,0,1,224.607,90.37Zm16.7,30.935a4.555,4.555,0,1,1,4.555-4.555A4.5,4.5,0,0,1,241.309,121.306Zm0-15.373a4.555,4.555,0,1,1,4.555-4.555A4.618,4.618,0,0,1,241.309,105.932Zm0-15.563a4.555,4.555,0,1,1,4.555-4.555A4.5,4.5,0,0,1,241.309,90.369Zm9.49-16.512H198.416V23.183H250.8Z" transform="translate(-106.875 358.592)" fill="#293241"/>
  </g>
</svg>
