<svg xmlns="http://www.w3.org/2000/svg" width="182" height="206" viewBox="0 0 182 206">
  <g id="Group_104" data-name="Group 104" transform="translate(-225 -533)">
    <rect id="Rectangle_12" data-name="Rectangle 12" width="175" height="200" rx="32" transform="translate(232 536)" fill="#fff"/>
    <path id="Path_12" data-name="Path 12" d="M292.84,539a.358.358,0,0,1-.36-.36v-8.3H289.7a.358.358,0,0,1-.36-.36v-1.11a.366.366,0,0,1,.105-.27.347.347,0,0,1,.255-.1h7.65a.36.36,0,0,1,.375.375v1.11a.347.347,0,0,1-.105.255.365.365,0,0,1-.27.1H294.6v8.3a.347.347,0,0,1-.105.255.365.365,0,0,1-.27.1Zm7.149.15a3.238,3.238,0,0,1-1.41-.3,2.742,2.742,0,0,1-1.005-.825,2.023,2.023,0,0,1-.36-1.17,1.957,1.957,0,0,1,.84-1.665,5,5,0,0,1,2.25-.84l2.055-.3v-.315a1.394,1.394,0,0,0-.315-.975,1.413,1.413,0,0,0-1.08-.345,1.592,1.592,0,0,0-.885.225,1.306,1.306,0,0,0-.495.57.382.382,0,0,1-.345.2h-1.185a.345.345,0,0,1-.255-.09.363.363,0,0,1-.075-.24,1.534,1.534,0,0,1,.2-.585,2.143,2.143,0,0,1,.57-.66,3.294,3.294,0,0,1,1-.555,4.337,4.337,0,0,1,1.485-.225,4.589,4.589,0,0,1,1.59.24,2.68,2.68,0,0,1,1.05.615,2.358,2.358,0,0,1,.57.915,3.4,3.4,0,0,1,.18,1.11v4.71a.358.358,0,0,1-.36.36h-1.215a.365.365,0,0,1-.27-.1.379.379,0,0,1-.09-.255v-.585a2.418,2.418,0,0,1-.525.54,3.062,3.062,0,0,1-.81.405A3.635,3.635,0,0,1,299.989,539.15Zm.51-1.425a1.969,1.969,0,0,0,.945-.225,1.554,1.554,0,0,0,.675-.69,2.538,2.538,0,0,0,.255-1.2v-.315l-1.5.24a3.226,3.226,0,0,0-1.32.435.872.872,0,0,0-.24,1.305,1.375,1.375,0,0,0,.525.345A2.073,2.073,0,0,0,300.5,537.725Zm10.115,1.425a3.168,3.168,0,0,1-1.455-.3,2.975,2.975,0,0,1-.945-.765v.555a.347.347,0,0,1-.1.255.318.318,0,0,1-.255.1h-1.185a.358.358,0,0,1-.36-.36v-9.93a.359.359,0,0,1,.36-.36h1.275a.318.318,0,0,1,.255.105.347.347,0,0,1,.1.255v3.33a2.864,2.864,0,0,1,.93-.7,3.059,3.059,0,0,1,1.38-.285,3.267,3.267,0,0,1,1.38.27,2.619,2.619,0,0,1,.975.765,3.315,3.315,0,0,1,.615,1.125,4.794,4.794,0,0,1,.225,1.395q.015.27.015.495t-.015.48a5.42,5.42,0,0,1-.24,1.44,3.465,3.465,0,0,1-.6,1.125,2.686,2.686,0,0,1-.975.75A3.434,3.434,0,0,1,310.614,539.15Zm-.555-1.605a1.645,1.645,0,0,0,1.005-.27,1.534,1.534,0,0,0,.51-.735,3.414,3.414,0,0,0,.2-.99,6.761,6.761,0,0,0,0-.9,3.414,3.414,0,0,0-.2-.99,1.448,1.448,0,0,0-.51-.72,1.581,1.581,0,0,0-1.005-.285,1.63,1.63,0,0,0-.975.27,1.739,1.739,0,0,0-.57.69,2.112,2.112,0,0,0-.21.855q-.015.27-.015.585t.015.57a3.256,3.256,0,0,0,.2.915,1.71,1.71,0,0,0,.555.72A1.661,1.661,0,0,0,310.059,537.545ZM315.868,539a.358.358,0,0,1-.36-.36v-9.93a.359.359,0,0,1,.36-.36h1.245a.359.359,0,0,1,.36.36v9.93a.358.358,0,0,1-.36.36Zm6.955.15a3.6,3.6,0,0,1-2.64-.96,3.905,3.905,0,0,1-1.05-2.73q-.015-.15-.015-.375a3.6,3.6,0,0,1,.015-.375,4.529,4.529,0,0,1,.51-1.95,3.155,3.155,0,0,1,1.275-1.26,3.861,3.861,0,0,1,1.9-.45,3.812,3.812,0,0,1,2.04.51,3.128,3.128,0,0,1,1.245,1.4,4.743,4.743,0,0,1,.42,2.055v.315a.347.347,0,0,1-.105.255.365.365,0,0,1-.27.1h-4.98v.12a2.821,2.821,0,0,0,.2.975,1.766,1.766,0,0,0,.555.7,1.474,1.474,0,0,0,.885.27,1.82,1.82,0,0,0,.7-.12,1.868,1.868,0,0,0,.465-.3,1.921,1.921,0,0,0,.255-.27.659.659,0,0,1,.21-.21.583.583,0,0,1,.255-.045h1.29a.324.324,0,0,1,.24.09.245.245,0,0,1,.09.225,1.234,1.234,0,0,1-.255.585,2.781,2.781,0,0,1-.66.675,3.868,3.868,0,0,1-1.1.555A4.8,4.8,0,0,1,322.823,539.15Zm-1.65-4.725h3.315v-.045a2.475,2.475,0,0,0-.2-1.02,1.612,1.612,0,0,0-.57-.69,1.716,1.716,0,0,0-1.8,0,1.612,1.612,0,0,0-.57.69,2.656,2.656,0,0,0-.18,1.02ZM331.616,539a3.3,3.3,0,0,1-1.515-.315,2.011,2.011,0,0,1-.915-.93,3.616,3.616,0,0,1-.3-1.56V532.79H327.7a.358.358,0,0,1-.36-.36v-.87a.358.358,0,0,1,.36-.36h1.185v-2.49a.378.378,0,0,1,.09-.255.365.365,0,0,1,.27-.105h1.215a.359.359,0,0,1,.36.36v2.49H332.7a.358.358,0,0,1,.36.36v.87a.358.358,0,0,1-.36.36h-1.875v3.255a1.848,1.848,0,0,0,.21.96.843.843,0,0,0,.765.345h1.035a.359.359,0,0,1,.36.36v.93a.358.358,0,0,1-.36.36Zm5.86.15a5.018,5.018,0,0,1-1.545-.21,3.455,3.455,0,0,1-1.035-.525,2.49,2.49,0,0,1-.6-.63,1.238,1.238,0,0,1-.21-.525.281.281,0,0,1,.09-.255.382.382,0,0,1,.255-.1h1.185a.334.334,0,0,1,.105.015.365.365,0,0,1,.12.09l.4.345a2.435,2.435,0,0,0,.525.315,2.032,2.032,0,0,0,.75.12,1.927,1.927,0,0,0,.975-.225.748.748,0,0,0,.4-.675.722.722,0,0,0-.18-.51,1.39,1.39,0,0,0-.63-.345,10.85,10.85,0,0,0-1.32-.345,5.629,5.629,0,0,1-1.395-.495,2.087,2.087,0,0,1-.825-.75,2.057,2.057,0,0,1,.075-2.16,2.646,2.646,0,0,1,1.05-.885,3.938,3.938,0,0,1,1.74-.345,4.271,4.271,0,0,1,1.41.21,3.272,3.272,0,0,1,.99.495,2.552,2.552,0,0,1,.615.615,1.091,1.091,0,0,1,.225.525.321.321,0,0,1-.09.27.358.358,0,0,1-.24.09h-1.11a.3.3,0,0,1-.135-.03.787.787,0,0,1-.12-.075q-.165-.15-.36-.315a1.846,1.846,0,0,0-.48-.285,1.622,1.622,0,0,0-.72-.135,1.309,1.309,0,0,0-.87.255.753.753,0,0,0-.3.615.771.771,0,0,0,.135.45,1.439,1.439,0,0,0,.585.345,9.148,9.148,0,0,0,1.32.345,4.605,4.605,0,0,1,1.59.54,2.056,2.056,0,0,1,.84.81,2,2,0,0,1,.255,1.005,1.974,1.974,0,0,1-.4,1.215,2.592,2.592,0,0,1-1.17.855A5.251,5.251,0,0,1,337.476,539.15Z" transform="translate(2 28)" fill="#293241"/>
    <g id="Group_63" data-name="Group 63" transform="translate(200 251)">
      <rect id="Rectangle_14" data-name="Rectangle 14" width="175" height="200" rx="32" transform="translate(28 285)" fill="none" stroke="#293241" stroke-width="6"/>
    </g>
    <g id="Group_100" data-name="Group 100" transform="translate(-322.896 -78.362)">
      <path id="Path_85" data-name="Path 85" d="M185.115,45.205H81.773A11.794,11.794,0,0,0,70,56.985v69.2a11.792,11.792,0,0,0,11.778,11.778h46.545c2.182,5.672,14.478,13.561,14.478,13.561v10.4h31.154V137.967h11.163a11.791,11.791,0,0,0,11.777-11.778v-69.2a11.792,11.792,0,0,0-11.777-11.78Zm-.557,80.425H173.952V107.667c0-4.929-7.307-4.929-7.307,0v7.192c0,.8-2.058.8-2.058,0V102.475c0-4.928-7.374-4.928-7.374,0V114.86c0,.8-2.058.8-2.058,0V97.968c0-4.925-7.374-4.925-7.374,0V114.86c0,.8-2.058.8-2.058,0V80.583c0-4.915-7.374-4.915-7.374,0v43.709c0,.864-2.325.864-2.325,0V107.847c0-5.982-8.038-5.716-8.038,0v17.785H82.329V57.542H184.556v68.09Zm6.171-31.592a2.405,2.405,0,1,1,2.406-2.4A2.4,2.4,0,0,1,190.729,94.039Z" transform="translate(510.005 634.795)" fill="#293241"/>
      <path id="Path_86" data-name="Path 86" d="M349.964,218.7a2.1,2.1,0,1,1-2.1-2.1,2.1,2.1,0,0,1,2.1,2.1" transform="translate(296.765 502.264)" fill="#293241"/>
      <path id="Path_87" data-name="Path 87" d="M415.727,218.7a2.1,2.1,0,1,1-2.1-2.1,2.1,2.1,0,0,1,2.1,2.1" transform="translate(245.913 502.264)" fill="#293241"/>
      <path id="Path_88" data-name="Path 88" d="M381.388,157.152a2.1,2.1,0,1,1-2.1-2.1,2.1,2.1,0,0,1,2.1,2.1" transform="translate(272.468 549.856)" fill="#293241"/>
      <path id="Path_89" data-name="Path 89" d="M355.727,166.428a2.1,2.1,0,1,1-2.1-2.1,2.1,2.1,0,0,1,2.1,2.1" transform="translate(292.308 542.682)" fill="#293241"/>
      <path id="Path_90" data-name="Path 90" d="M408.218,166.425a2.1,2.1,0,1,1-2.1-2.1,2.1,2.1,0,0,1,2.1,2.1" transform="translate(251.721 542.685)" fill="#293241"/>
      <path id="Path_91" data-name="Path 91" d="M343.478,190.365a2.1,2.1,0,1,1-2.1-2.1,2.1,2.1,0,0,1,2.1,2.1" transform="translate(301.782 524.173)" fill="#293241"/>
      <path id="Path_92" data-name="Path 92" d="M421.557,190.368a2.1,2.1,0,1,1-2.1-2.1,2.1,2.1,0,0,1,2.1,2.1" transform="translate(241.405 524.17)" fill="#293241"/>
    </g>
  </g>
</svg>
